<?xml version="1.0" encoding="utf-8"?>
<!-- Generator: Adobe Illustrator 23.0.2, SVG Export Plug-In . SVG Version: 6.00 Build 0)  -->
<svg version="1.1" id="Layer_1" xmlns="http://www.w3.org/2000/svg" xmlns:xlink="http://www.w3.org/1999/xlink" x="0px" y="0px"
	 viewBox="0 0 512 388" style="enable-background:new 0 0 512 388;" xml:space="preserve">
<style type="text/css">
	.st0{fill:#006A60;}
	.st1{fill:#C5C6C7;}
	.st2{fill:#45A29E;}
	.st3{fill:#66FCF1;}
</style>
<path class="st0" d="M461.3,230.5l-76.5-5.5l-50.6-84.2L309,98.7V87c0-12.7-10.3-23-22.9-23c-2.8,0-5.7,0.5-8.3,1.5l-72.7,28
	l5.5-18.4c4.3-15.5-2.7-31.9-16.9-39.5l-57-30.6c-4.1-2.2-9.3-0.8-11.7,3.2l-83.7,134l-1.8-1c-4.2-2.4-9.6-1-12,3.3
	c-0.1,0.1-0.1,0.2-0.2,0.3L1,194.1c-2.3,4.3-0.7,9.5,3.5,11.9l318.5,176.6c1.3,0.7,2.8,1.1,4.3,1.1H459c29.2,0,52.9-23.7,53-53V285
	C511.9,256.4,489.8,232.6,461.3,230.5z M366.3,228.6l-10.1,3.4l-79-102.7l20.3-15.2L366.3,228.6z M135.7,24.6l49.6,26.6
	c6.9,3.6,10.3,11.6,8.3,19.1l-7.3,24.6l-50.7-30.4L118,53.9L135.7,24.6z M83.4,108.8l4.5-7.1l29,21.6c14.8,11.1,22.3,29.4,19.7,47.7
	l-1.1,25.5l-78.9-45.5L83.4,108.8z M459,365.9H329.6l-309-171.3l17.8-33.5L331,329.4c1.3,0.8,2.9,1.2,4.4,1.2h158.9
	C494.3,350.1,478.5,365.9,459,365.9z M494.3,313H337.8l-60.5-34.9l20.4-20.8c3.4-3.5,3.2-9.1-0.3-12.5c-3.5-3.3-8.9-3.2-12.3,0.1
	l-23.6,24l-33.5-19.3l33.6-26.9c3.8-3,4.4-8.6,1.4-12.4c-3-3.8-8.6-4.4-12.4-1.4l-39,31.2l-28.7-16.5l43.6-36.3
	c3.8-3.1,4.3-8.7,1.1-12.4c-3.1-3.8-8.7-4.3-12.4-1.1l-48.6,40.5l-13.6-7.9l1.4-33.9c3.3-24.4-7-48.7-26.7-63.4L97.4,86.8L108.8,69
	l78.1,46.9c1.1,0.6,2.2,1,3.4,1.1c0.2,0,0.4,0.1,0.6,0.1c0.2,0,0.3,0.1,0.5,0.1c1.1,0,2.2-0.2,3.2-0.6L284.1,82
	c1.6-0.6,3.5-0.4,4.9,0.6c1.5,1,2.3,2.6,2.3,4.4v9.7l-31.8,23.8c-3.9,2.9-4.7,8.5-1.8,12.4c0,0,0,0.1,0.1,0.1l88.3,114.8
	c2.3,3,6.2,4.2,9.8,3l24.8-8.3l79.3,5.7c19.3,1.4,34.3,17.5,34.3,36.8V313z"/>
<path class="st1" d="M53,260H8.8C4,260,0,264,0,268.8s4,8.8,8.8,8.8H53c4.9,0,8.8-4,8.8-8.8S57.8,260,53,260z"/>
<path class="st1" d="M0,321.8c0,4.9,4,8.8,8.8,8.8h114.8c4.9,0,8.8-4,8.8-8.8s-4-8.8-8.8-8.8H8.8C4,313,0,316.9,0,321.8z"/>
<path class="st1" d="M220.7,365.9H8.8c-4.9,0-8.8,3.9-8.8,8.8s4,8.8,8.8,8.8h211.9c4.9,0,8.8-4,8.8-8.8S225.6,365.9,220.7,365.9z"/>
<path class="st2" d="M494.3,313H337.8l-60.5-34.9l20.4-20.8c3.4-3.5,3.2-9.1-0.3-12.5c-3.5-3.3-8.9-3.2-12.3,0.1l-23.6,24
	l-33.5-19.3l33.6-26.9c3.8-3,4.4-8.6,1.4-12.4c-3-3.8-8.6-4.4-12.4-1.4l-39,31.2l-28.7-16.5l43.6-36.3c3.8-3.1,4.3-8.7,1.1-12.4
	c-3.1-3.8-8.7-4.3-12.4-1.1l-48.6,40.5l-13.6-7.9l1.4-33.9c3.3-24.4-7-48.7-26.7-63.4L97.4,86.8L108.8,69l78.1,46.9
	c1.1,0.6,2.2,1,3.4,1.1c0.2,0,0.4,0.1,0.6,0.1c0.2,0,0.3,0.1,0.5,0.1c1.1,0,2.2-0.2,3.2-0.6L284.1,82c1.6-0.6,3.5-0.4,4.9,0.6
	c1.5,1,2.3,2.6,2.3,4.4v9.7l-31.8,23.8c-3.9,2.9-4.7,8.5-1.8,12.4c0,0,0,0.1,0.1,0.1l88.3,114.8c2.3,3,6.2,4.2,9.8,3l24.8-8.3
	l79.3,5.7c19.3,1.4,34.3,17.5,34.3,36.8V313z"/>
<path class="st3" d="M135.7,24.6l49.6,26.6c6.9,3.6,10.3,11.6,8.3,19.1l-7.3,24.6l-50.7-30.4L118,53.9L135.7,24.6z"/>
<path class="st3" d="M83.9,108.8l4.5-7.1l29,21.6c14.8,11.1,22.3,29.4,19.7,47.7l-1.1,25.5l-78.9-45.5L83.9,108.8z"/>
</svg>
