<svg height="682pt" viewBox="-21 -21 682.35014 682" width="682pt" xmlns="http://www.w3.org/2000/svg"><path d="m175.914062 418.425781h-18.730468v-18.730469h18.730468zm-31.21875 0h-18.734374v-18.730469h18.734374zm0 0"/><path d="m267.210938 118.851562 48.367187 35.136719-18.480469 56.859375 12.632813 9.171875 48.359375-35.140625 48.367187 35.140625 12.632813-9.171875-18.480469-56.859375 48.367187-35.136719-4.820312-14.84375h-59.789062l-18.472657-56.859374h-15.609375l-18.472656 56.859374h-59.78125zm78.214843 3.886719 12.664063-38.988281 12.671875 38.988281h40.992187l-33.164062 24.097657 12.667968 38.984374-33.167968-24.09375-33.160156 24.09375 12.667968-38.984374-33.167968-24.097657zm0 0"/><path d="m426.957031 264.90625 43.527344 31.625c-16.636719 51.207031-13.757813 42.320312-16.609375 51.183594l12.453125 9.046875 43.527344-31.625 43.53125 31.625 12.464843-9.058594-16.628906-51.171875 43.535156-31.625-4.765624-14.65625h-53.804688l-16.628906-51.171875h-15.410156l-16.625 51.171875h-53.808594zm72.175781 4.078125 10.722657-32.996094 10.722656 32.996094h34.695313l-28.070313 20.398437 10.722656 32.996094-28.070312-20.394531-28.070313 20.394531 10.722656-32.996094-28.070312-20.398437zm0 0"/><path d="m619.21875 365.082031c-45.71875 44.429688-106.003906 68.898438-169.738281 68.898438-134.324219 0-243.597657-109.277344-243.597657-243.597657 0-63.738281 24.464844-124.019531 68.898438-169.738281l19.902344-20.488281-28.171875 4.722656c-73.695313 12.347656-141.164063 50.601563-189.96875 107.71875-106.214844 124.308594-103.152344 313.359375 17.105469 433.617188 60.382812 60.382812 140.667968 93.636718 226.0625 93.636718 68.515624 0 133.851562-21.375 188.949218-61.816406l-11.089844-15.105468c-51.855468 38.070312-113.359374 58.1875-177.859374 58.1875-165.953126 0-300.96875-135.011719-300.96875-300.96875 0-138.285157 92.578124-256.5625 223.78125-290.988282-35.890626 45.917969-55.375 102.195313-55.375 161.222656 0 144.644532 117.679687 262.332032 262.332031 262.332032 59.003906 0 115.257812-19.476563 161.164062-55.332032-15.402343 57.996094-48.15625 110.628907-94.015625 150.34375l12.265625 14.164063c56.199219-48.679687 93.875-115.640625 106.089844-188.542969l4.71875-28.171875zm0 0"/></svg>